<svg width="231" height="212" viewBox="0 0 231 212" fill="none" xmlns="http://www.w3.org/2000/svg">
<circle cx="113" cy="106" r="106" fill="#50A65C"/>
<circle cx="113" cy="106" r="106" fill="#57B063"/>
<circle cx="115.5" cy="110.5" r="96.5" fill="#50A65C"/>
<ellipse cx="76.5001" cy="83" rx="10.5" ry="19" fill="#2E2E2E"/>
<path d="M146 176.382C146 178.955 132.792 172.664 116.5 172.664C100.208 172.664 87 178.955 87 176.382C87 173.809 100.208 168 116.5 168C132.792 168 146 173.809 146 176.382Z" fill="#2E2E2E"/>
<ellipse cx="157.5" cy="83" rx="10.5" ry="19" fill="#2E2E2E"/>
<path d="M143.5 131.5C143.5 136.094 140.466 140.332 135.391 143.448C130.324 146.559 123.293 148.5 115.5 148.5C107.707 148.5 100.676 146.559 95.6092 143.448C90.5343 140.332 87.5001 136.094 87.5001 131.5C87.5001 126.906 90.5343 122.668 95.6092 119.552C100.676 116.441 107.707 114.5 115.5 114.5C123.293 114.5 130.324 116.441 135.391 119.552C140.466 122.668 143.5 126.906 143.5 131.5Z" fill="#2E2E2E" stroke="#2E2E2E"/>
<ellipse cx="107" cy="132" rx="4" ry="7" fill="#50A65C"/>
<ellipse cx="124" cy="132" rx="4" ry="7" fill="#50A65C"/>
<path d="M208.437 11.8241C202.307 10.0329 194.459 16.2142 191.302 19.5287C187.351 22.8816 185.621 27.3031 185.25 29.0947L187.187 32.2029L177.703 31.2327L193.186 45.1845C197.165 44.864 206.787 43.3749 213.448 39.9822C221.773 35.7413 228.414 20.4154 230.193 14.0498C231.972 7.6842 230.635 9.72991 224.614 13.4791C218.594 17.2283 216.099 14.063 208.437 11.8241Z" fill="#57B063"/>
<path d="M22.5634 11.8241C28.6935 10.0329 36.5411 16.2142 39.6986 19.5287C43.6493 22.8816 45.3793 27.3031 45.7505 29.0947L43.8137 32.2029L53.2972 31.2327L37.8138 45.1845C33.8352 44.864 24.2129 43.3749 17.5525 39.9822C9.22701 35.7413 2.5859 20.4154 0.807294 14.0498C-0.971316 7.6842 0.365347 9.72991 6.3858 13.4791C12.4062 17.2283 14.9009 14.063 22.5634 11.8241Z" fill="#57B063"/>
</svg>
