<svg width="61" height="52" viewBox="0 0 61 52" fill="none" xmlns="http://www.w3.org/2000/svg">
<circle cx="30.0387" cy="27.4256" r="24.4256" fill="#50A65C"/>
<circle cx="30.0387" cy="27.4256" r="24.4256" fill="#57B063"/>
<circle cx="30.6147" cy="28.4626" r="22.2365" fill="#50A65C"/>
<ellipse cx="21.6279" cy="22.1257" rx="2.41952" ry="4.37818" fill="#2E2E2E"/>
<ellipse cx="40.2928" cy="22.1257" rx="2.41952" ry="4.37818" fill="#2E2E2E"/>
<path d="M36.682 33.3016C36.682 34.1763 36.1028 35.0479 34.9969 35.727C33.8992 36.401 32.3511 36.8342 30.6147 36.8342C28.8783 36.8342 27.3303 36.401 26.2326 35.727C25.1267 35.0479 24.5475 34.1763 24.5475 33.3016C24.5475 32.427 25.1267 31.5553 26.2326 30.8763C27.3303 30.2023 28.8783 29.7691 30.6147 29.7691C32.3511 29.7691 33.8992 30.2023 34.9969 30.8763C36.1028 31.5553 36.682 32.427 36.682 33.3016Z" fill="#2E2E2E" stroke="#2E2E2E"/>
<ellipse cx="28.6561" cy="33.4168" rx="0.921722" ry="1.61301" fill="#50A65C"/>
<ellipse cx="32.5734" cy="33.4168" rx="0.921722" ry="1.61301" fill="#50A65C"/>
<path d="M52.6255 2.38935C50.6045 1.77594 48.0007 3.94943 46.9514 5.11284C45.6401 6.29119 45.0601 7.83831 44.934 8.46457L45.5676 9.546L42.4374 9.22577L47.5238 14.0667C48.8384 13.9471 52.0192 13.4084 54.2255 12.2108C56.9834 10.7139 59.2066 5.34998 59.8064 3.12399C60.4063 0.89799 59.9608 1.61485 57.9652 2.93562C55.9695 4.25639 55.1518 3.1561 52.6255 2.38935Z" fill="#57B063"/>
<path d="M7.45538 2.38938C9.47642 1.77597 12.0802 3.94946 13.1295 5.11287C14.4408 6.29122 15.0208 7.83834 15.1469 8.4646L14.5133 9.54603L17.6435 9.2258L12.5571 14.0668C11.2425 13.9471 8.06173 13.4084 5.85542 12.2108C3.09755 10.7139 0.874319 5.35001 0.274485 3.12402C-0.32535 0.89802 0.120093 1.61488 2.11574 2.93565C4.11139 4.25642 4.92909 3.15613 7.45538 2.38938Z" fill="#57B063"/>
</svg>
