<svg width="176" height="190" viewBox="0 0 176 190" fill="none" xmlns="http://www.w3.org/2000/svg">
<path d="M288 106.313L80.1288 3L30 106.586L213.352 190L288 106.313Z" fill="#57B063"/>
<circle cx="61.5186" cy="57.7077" r="57.7077" fill="#50A65C"/>
<circle cx="61.5186" cy="57.7077" r="57.7077" fill="#57B063"/>
<path d="M276.562 108.484L88.3874 15.2436L43.0086 108.73L208.987 184.011L276.562 108.484Z" fill="#50A65C"/>
<circle cx="62.8797" cy="60.1576" r="52.5358" fill="#50A65C"/>
<ellipse cx="41.6476" cy="45.1862" rx="5.71633" ry="10.3438" fill="#2E2E2E"/>
<ellipse cx="85.745" cy="45.1862" rx="5.71633" ry="10.3438" fill="#2E2E2E"/>
<path d="M77.8954 71.5903C77.8954 73.9822 76.3146 76.2275 73.5893 77.9009C70.8723 79.5693 67.0871 80.6175 62.8797 80.6175C58.6722 80.6175 54.887 79.5693 52.17 77.9009C49.4447 76.2275 47.8639 73.9822 47.8639 71.5903C47.8639 69.1983 49.4447 66.953 52.17 65.2796C54.887 63.6112 58.6722 62.563 62.8797 62.563C67.0871 62.563 70.8723 63.6112 73.5893 65.2796C76.3146 66.953 77.8954 69.1983 77.8954 71.5903Z" fill="#2E2E2E" stroke="#2E2E2E"/>
<ellipse cx="58.2521" cy="71.8625" rx="2.17765" ry="3.81089" fill="#50A65C"/>
<ellipse cx="67.5072" cy="71.8625" rx="2.17765" ry="3.81089" fill="#50A65C"/>
<path d="M113.476 4.80394C110.138 3.82881 105.866 7.19398 104.147 8.99846C101.996 10.8238 101.054 13.2309 100.852 14.2063L101.907 15.8984L96.7437 15.3703L105.173 22.9658C107.339 22.7913 112.578 21.9806 116.204 20.1336C120.736 17.8248 124.352 9.48119 125.32 6.01567C126.288 2.55014 125.56 3.66385 122.283 5.70497C119.005 7.74608 117.647 6.02285 113.476 4.80394Z" fill="#57B063"/>
<path d="M12.2838 6.43717C15.621 5.46204 19.8934 8.82721 21.6124 10.6317C23.7631 12.457 24.705 14.8641 24.9071 15.8395L23.8527 17.5317L29.0156 17.0035L20.5863 24.599C18.4203 24.4245 13.1817 23.6138 9.55574 21.7668C5.02323 19.458 1.40773 11.1144 0.439435 7.6489C-0.528863 4.18337 0.198833 5.29708 3.47644 7.3382C6.75405 9.37931 8.11215 7.65608 12.2838 6.43717Z" fill="#57B063"/>
<rect x="99.653" y="118" width="47.4228" height="8.98121" rx="4.49061" transform="rotate(24 99.653 118)" fill="#57B063"/>
<rect x="146.672" y="139.661" width="9.18366" height="8.98121" rx="4.49061" transform="rotate(24 146.672 139.661)" fill="#57B063"/>
</svg>
